
<svg width="100" height="100" viewBox="0 0 100 100" fill="none" xmlns="http://www.w3.org/2000/svg">
<path d="M0 20C0 8.9543 8.95431 0 20 0H80C91.0457 0 100 8.95431 100 20V80C100 91.0457 91.0457 100 80 100H20C8.9543 100 0 91.0457 0 80V20Z" fill="#7938F1"/>
<g filter="url(#filter0_d_4_27)">
<path d="M34.7635 36.0655L34.7635 63.9655C34.7635 65.0815 35.1975 66.1975 36.05 67.05L46.9 77.9C48.605 79.605 51.395 79.605 53.1 77.9L63.95 67.05C64.8025 66.1975 65.2365 65.0815 65.2365 63.9345L65.2365 36.0345C65.2365 34.9185 64.8025 33.8025 63.95 32.95C63.0975 32.0975 61.9815 31.6635 60.85 31.679H39.15C38.0185 31.6635 36.9025 32.0975 36.05 32.95C35.1975 33.8025 34.7635 34.9495 34.7635 36.0655ZM60.8655 36.0345L60.85 63.95L50 74.8L39.15 63.95L39.1345 63.9655L39.1345 36.0655L60.8655 36.0345V36.0345Z" fill="white"/>
<path d="M52.5909 60.2163C51.3069 58.9322 49.225 58.9322 47.9409 60.2163C46.6569 61.5004 46.6569 63.5823 47.9409 64.8663C49.225 66.1504 51.3069 66.1504 52.5909 64.8663C53.875 63.5823 53.875 61.5004 52.5909 60.2163Z" fill="white"/>
<path d="M52.5909 50.5714C51.3069 49.2873 49.225 49.2873 47.9409 50.5714C46.6569 51.8554 46.6569 53.9373 47.9409 55.2214C49.225 56.5054 51.3069 56.5054 52.5909 55.2214C53.875 53.9373 53.875 51.8554 52.5909 50.5714Z" fill="white"/>
<path d="M52.5909 40.9264C51.3069 39.6424 49.225 39.6424 47.9409 40.9264C46.6569 42.2105 46.6569 44.2924 47.9409 45.5764C49.225 46.8605 51.3069 46.8605 52.5909 45.5764C53.875 44.2924 53.875 42.2105 52.5909 40.9264Z" fill="white"/>
</g>
<defs>
<filter id="filter0_d_4_27" x="30.7635" y="31.6786" width="38.473" height="55.5002" filterUnits="userSpaceOnUse" color-interpolation-filters="sRGB">
<feFlood flood-opacity="0" result="BackgroundImageFix"/>
<feColorMatrix in="SourceAlpha" type="matrix" values="0 0 0 0 0 0 0 0 0 0 0 0 0 0 0 0 0 0 127 0" result="hardAlpha"/>
<feOffset dy="4"/>
<feGaussianBlur stdDeviation="2"/>
<feComposite in2="hardAlpha" operator="out"/>
<feColorMatrix type="matrix" values="0 0 0 0 0 0 0 0 0 0 0 0 0 0 0 0 0 0 0.2 0"/>
<feBlend mode="normal" in2="BackgroundImageFix" result="effect1_dropShadow_4_27"/>
<feBlend mode="normal" in="SourceGraphic" in2="effect1_dropShadow_4_27" result="shape"/>
</filter>
</defs>
</svg>
